<svg version="1.1" viewBox="0.0 0.0 1280.0 720.0" fill="none" stroke="none" stroke-linecap="square" stroke-miterlimit="10" xmlns:xlink="http://www.w3.org/1999/xlink" xmlns="http://www.w3.org/2000/svg"><clipPath id="g2c5f5ef32f4_0_19.0"><path d="m0 0l1280.0 0l0 720.0l-1280.0 0l0 -720.0z" clip-rule="nonzero"/></clipPath><g clip-path="url(#g2c5f5ef32f4_0_19.0)"><path fill="#ffffff" d="m0 0l1280.0 0l0 720.0l-1280.0 0z" fill-rule="evenodd"/><path fill="#000000" fill-opacity="0.0" d="m250.66142 227.30183l778.6772 0l0 213.16536l-778.6772 0z" fill-rule="evenodd"/><path fill="#0f0f0f" d="m267.77692 379.76453l0 -89.59375l17.15625 0l38.140625 63.21875l-9.09375 0l37.515625 -63.21875l17.015625 0l0.25 89.59375l-19.453125 0l-0.125 -59.78125l3.578125 0l-29.953125 50.3125l-9.34375 0l-30.578125 -50.3125l4.34375 0l0 59.78125l-19.453125 0zm122.24002 0l0 -89.59375l20.734375 0l0 89.59375l-20.734375 0zm41.98401 0l0 -89.59375l17.15625 0l52.859375 64.5l-8.328125 0l0 -64.5l20.484406 0l0 89.59375l-17.015656 0l-53.0 -64.515625l8.328125 0l0 64.515625l-20.484375 0zm122.50217 -53.5l43.125 0l0 16.125l-43.125 0l0 -16.125zm1.53125 36.859375l48.765625 0l0 16.640625l-69.375 0l0 -89.59375l67.71875 0l0 16.640625l-47.109375 0l0 56.3125zm65.278625 16.640625l0 -89.59375l38.78125 0q12.03125 0 20.734375 3.90625q8.703125 3.890625 13.4375 11.1875q4.734375 7.296875 4.734375 17.40625q0 9.984375 -4.734375 17.21875q-4.734375 7.234375 -13.4375 11.078125q-8.703125 3.84375 -20.734375 3.84375l-27.265625 0l9.21875 -9.09375l0 34.046875l-20.734375 0zm56.953125 0l-22.390625 -32.515625l22.140625 0l22.65625 32.515625l-22.40625 0zm-36.21875 -31.75l-9.21875 -9.71875l26.109375 0q9.609375 0 14.34375 -4.15625q4.734375 -4.171875 4.734375 -11.46875q0 -7.421875 -4.734375 -11.515625q-4.734375 -4.09375 -14.34375 -4.09375l-26.109375 0l9.21875 -9.859375l0 50.8125zm100.22064 31.75l-38.65625 -89.59375l22.40625 0l33.796875 79.359375l-13.1875 0l34.296875 -79.359375l20.609375 0l-38.78125 89.59375l-20.484375 0zm51.967773 0l39.9375 -89.59375l20.484375 0l40.0625 89.59375l-21.765625 0l-32.765625 -79.109375l8.1875 0l-32.890625 79.109375l-21.25 0zm19.96875 -19.203125l5.5 -15.734375l46.09375 0l5.625 15.734375l-57.21875 0zm154.24084 20.734375q-9.859375 0 -17.546875 -3.1875q-7.671875 -3.203125 -12.15625 -8.703125q-4.46875 -5.515625 -4.46875 -12.6875q0 -6.65625 2.9375 -11.953125q2.953125 -5.3125 9.34375 -9.984375q6.40625 -4.671875 16.265625 -9.15625q7.15625 -3.328125 11.25 -5.890625q4.109375 -2.5625 5.765625 -4.921875q1.671875 -2.375 1.671875 -4.8125q0 -3.328125 -2.25 -5.375q-2.234375 -2.046875 -6.578125 -2.046875q-4.609375 0 -7.171875 2.3125q-2.5625 2.296875 -2.5625 5.890625q0 1.90625 0.765625 3.765625q0.765625 1.859375 2.9375 4.234375q2.1875 2.359375 6.15625 6.078125l47.234375 43.765625l-10.890625 12.671875l-52.09375 -48.375q-4.484375 -4.09375 -7.171875 -7.671875q-2.6875 -3.59375 -3.90625 -7.046875q-1.203125 -3.46875 -1.203125 -7.171875q0 -6.53125 3.453125 -11.515625q3.453125 -5.0 9.71875 -7.75q6.28125 -2.75 14.734375 -2.75q7.796875 0 13.484375 2.5q5.703125 2.484375 8.96875 7.09375q3.265625 4.609375 3.265625 11.015625q0 5.625 -2.8125 10.296875q-2.8125 4.671875 -8.765625 8.78125q-5.953125 4.09375 -15.5625 8.3125q-6.515625 2.9375 -10.296875 5.703125q-3.78125 2.75 -5.453125 5.5625q-1.65625 2.8125 -1.65625 6.265625q0 3.203125 1.984375 5.765625q1.984375 2.5625 5.5625 3.96875q3.59375 1.40625 8.453125 1.40625q7.8125 0 14.34375 -3.640625q6.53125 -3.65625 11.0625 -10.890625q4.546875 -7.234375 6.46875 -17.59375l16.0 4.984375q-2.6875 13.0625 -9.609375 22.671875q-6.90625 9.59375 -17.015625 14.84375q-10.109375 5.234375 -22.65625 5.234375z" fill-rule="nonzero"/><path fill="#000000" fill-opacity="0.0" d="m790.18896 670.8294l408.5039 0l0 27.02362l-408.5039 0z" fill-rule="evenodd"/><path fill="#ffffff" d="m974.6039 689.759q-1.265625 0 -2.34375 -0.421875q-1.0625 -0.421875 -1.84375 -1.1875q-0.78125 -0.765625 -1.234375 -1.8125q-0.4375 -1.046875 -0.4375 -2.265625q0 -1.234375 0.4375 -2.265625q0.453125 -1.046875 1.234375 -1.8125q0.796875 -0.78125 1.859375 -1.203125q1.078125 -0.421875 2.34375 -0.421875q1.21875 0 2.28125 0.40625q1.078125 0.40625 1.8125 1.234375l-0.75 0.75q-0.6875 -0.703125 -1.515625 -1.015625q-0.828125 -0.3125 -1.796875 -0.3125q-1.0 0 -1.875 0.34375q-0.859375 0.34375 -1.5 0.984375q-0.640625 0.625 -1.0 1.46875q-0.359375 0.828125 -0.359375 1.84375q0 1.0 0.359375 1.84375q0.359375 0.84375 1.0 1.484375q0.640625 0.625 1.5 0.96875q0.875 0.34375 1.875 0.34375q0.96875 0 1.796875 -0.3125q0.828125 -0.328125 1.515625 -1.03125l0.75 0.75q-0.734375 0.8125 -1.8125 1.234375q-1.0625 0.40625 -2.296875 0.40625zm11.295288 0q-1.265625 0 -2.34375 -0.421875q-1.078125 -0.421875 -1.875 -1.1875q-0.78125 -0.78125 -1.234375 -1.8125q-0.4375 -1.046875 -0.4375 -2.265625q0 -1.234375 0.4375 -2.265625q0.453125 -1.03125 1.234375 -1.8125q0.796875 -0.78125 1.859375 -1.203125q1.078125 -0.421875 2.359375 -0.421875q1.265625 0 2.328125 0.421875q1.078125 0.421875 1.875 1.203125q0.796875 0.765625 1.234375 1.8125q0.4375 1.03125 0.4375 2.265625q0 1.21875 -0.4375 2.265625q-0.4375 1.046875 -1.234375 1.8125q-0.796875 0.765625 -1.875 1.1875q-1.0625 0.421875 -2.328125 0.421875zm0 -1.046875q1.015625 0 1.859375 -0.34375q0.859375 -0.34375 1.484375 -0.96875q0.640625 -0.640625 0.984375 -1.484375q0.359375 -0.84375 0.359375 -1.84375q0 -1.015625 -0.359375 -1.84375q-0.34375 -0.84375 -0.984375 -1.46875q-0.625 -0.640625 -1.484375 -0.984375q-0.84375 -0.34375 -1.859375 -0.34375q-1.0 0 -1.875 0.34375q-0.859375 0.34375 -1.5 0.984375q-0.625 0.625 -0.984375 1.46875q-0.359375 0.828125 -0.359375 1.84375q0 0.984375 0.359375 1.84375q0.359375 0.84375 0.984375 1.484375q0.640625 0.625 1.5 0.96875q0.875 0.34375 1.875 0.34375zm8.533386 0.953125l0 -11.203125l0.96875 0l7.734375 9.734375l-0.515625 0l0 -9.734375l1.171875 0l0 11.203125l-0.984375 0l-7.703125 -9.734375l0.515625 0l0 9.734375l-1.1875 0zm14.054932 -5.78125l5.921875 0l0 1.03125l-5.921875 0l0 -1.03125zm0.140625 5.78125l-1.1875 0l0 -11.203125l7.671875 0l0 1.03125l-6.484375 0l0 10.171875zm8.940491 0l0 -11.203125l1.1875 0l0 11.203125l-1.1875 0zm4.8320312 0l0 -11.203125l4.5625 0q1.78125 0 3.125 0.71875q1.359375 0.703125 2.109375 1.96875q0.765625 1.265625 0.765625 2.921875q0 1.640625 -0.765625 2.90625q-0.75 1.265625 -2.109375 1.984375q-1.34375 0.703125 -3.125 0.703125l-4.5625 0zm1.1875 -1.03125l3.296875 0q1.5 0 2.59375 -0.578125q1.09375 -0.578125 1.703125 -1.609375q0.609375 -1.03125 0.609375 -2.375q0 -1.359375 -0.609375 -2.390625q-0.609375 -1.03125 -1.703125 -1.609375q-1.09375 -0.578125 -2.59375 -0.578125l-3.296875 0l0 9.140625zm13.075439 -5.15625l5.921875 0l0 1.0l-5.921875 0l0 -1.0zm0.140625 5.15625l6.734375 0l0 1.03125l-7.921875 0l0 -11.203125l7.671875 0l0 1.03125l-6.484375 0l0 9.140625zm9.5164795 1.03125l0 -11.203125l0.96875 0l7.734375 9.734375l-0.515625 0l0 -9.734375l1.171875 0l0 11.203125l-0.984375 0l-7.703125 -9.734375l0.515625 0l0 9.734375l-1.1875 0zm15.179932 0l0 -10.171875l-3.9375 0l0 -1.03125l9.0625 0l0 1.03125l-3.9375 0l0 10.171875l-1.1875 0zm7.012085 0l0 -11.203125l1.1875 0l0 11.203125l-1.1875 0zm3.0351562 0l5.125 -11.203125l1.15625 0l5.125 11.203125l-1.25 0l-4.703125 -10.515625l0.484375 0l-4.703125 10.515625l-1.234375 0zm2.015625 -2.984375l0.359375 -0.96875l6.5 0l0.359375 0.96875l-7.21875 0zm11.253296 2.984375l0 -11.203125l1.1875 0l0 10.171875l6.265625 0l0 1.03125l-7.453125 0zm13.616089 0l0 -11.203125l0.96875 0l5.125 8.734375l-0.515625 0l5.078125 -8.734375l0.96875 0l0 11.203125l-1.140625 0l0 -9.421875l0.28125 0l-4.671875 8.0l-0.5625 0l-4.703125 -8.0l0.296875 0l0 9.421875l-1.125 0zm13.483154 0l5.125 -11.203125l1.15625 0l5.125 11.203125l-1.25 0l-4.703125 -10.515625l0.484375 0l-4.703125 10.515625l-1.234375 0zm2.015625 -2.984375l0.359375 -0.96875l6.5 0l0.359375 0.96875l-7.21875 0zm12.865112 2.984375l0 -10.171875l-3.9375 0l0 -1.03125l9.0625 0l0 1.03125l-3.9375 0l0 10.171875l-1.1875 0zm8.059082 -6.1875l5.921875 0l0 1.0l-5.921875 0l0 -1.0zm0.140625 5.15625l6.734375 0l0 1.03125l-7.921875 0l0 -11.203125l7.671875 0l0 1.03125l-6.484375 0l0 9.140625zm9.5164795 1.03125l0 -11.203125l4.1875 0q1.421875 0 2.4375 0.46875q1.03125 0.453125 1.578125 1.3125q0.5625 0.84375 0.5625 2.0625q0 1.1875 -0.5625 2.046875q-0.546875 0.84375 -1.578125 1.3125q-1.015625 0.453125 -2.4375 0.453125l-3.53125 0l0.53125 -0.546875l0 4.09375l-1.1875 0zm7.640625 0l-2.875 -4.0625l1.28125 0l2.890625 4.0625l-1.296875 0zm-6.453125 -4.0l-0.53125 -0.5625l3.5 0q1.671875 0 2.546875 -0.734375q0.875 -0.734375 0.875 -2.0625q0 -1.34375 -0.875 -2.078125q-0.875 -0.734375 -2.546875 -0.734375l-3.5 0l0.53125 -0.5625l0 6.734375zm10.380493 4.0l0 -11.203125l1.1875 0l0 11.203125l-1.1875 0zm3.0351562 0l5.125 -11.203125l1.15625 0l5.125 11.203125l-1.25 0l-4.703125 -10.515625l0.484375 0l-4.703125 10.515625l-1.234375 0zm2.015625 -2.984375l0.359375 -0.96875l6.5 0l0.359375 0.96875l-7.21875 0zm11.253296 2.984375l0 -11.203125l1.1875 0l0 10.171875l6.265625 0l0 1.03125l-7.453125 0zm12.3741455 0.09375q-1.25 0 -2.390625 -0.40625q-1.140625 -0.40625 -1.765625 -1.046875l0.46875 -0.90625q0.59375 0.5625 1.59375 0.96875q1.0 0.390625 2.09375 0.390625q1.0625 0 1.71875 -0.265625q0.671875 -0.265625 0.984375 -0.71875q0.3125 -0.453125 0.3125 -0.984375q0 -0.65625 -0.375 -1.0625q-0.375 -0.40625 -0.984375 -0.625q-0.609375 -0.234375 -1.34375 -0.40625q-0.734375 -0.1875 -1.46875 -0.375q-0.734375 -0.203125 -1.359375 -0.53125q-0.609375 -0.34375 -0.984375 -0.890625q-0.375 -0.5625 -0.375 -1.453125q0 -0.84375 0.4375 -1.53125q0.4375 -0.703125 1.34375 -1.125q0.921875 -0.421875 2.34375 -0.421875q0.9375 0 1.859375 0.265625q0.9375 0.265625 1.609375 0.734375l-0.40625 0.9375q-0.71875 -0.484375 -1.53125 -0.703125q-0.796875 -0.21875 -1.546875 -0.21875q-1.015625 0 -1.671875 0.265625q-0.65625 0.265625 -0.96875 0.734375q-0.3125 0.453125 -0.3125 1.03125q0 0.65625 0.375 1.0625q0.375 0.390625 0.984375 0.609375q0.625 0.21875 1.359375 0.40625q0.734375 0.171875 1.46875 0.390625q0.734375 0.203125 1.34375 0.53125q0.625 0.328125 1.0 0.875q0.375 0.53125 0.375 1.421875q0 0.8125 -0.453125 1.515625q-0.453125 0.6875 -1.375 1.109375q-0.90625 0.421875 -2.359375 0.421875z" fill-rule="nonzero"/><path fill="#000000" fill-opacity="0.0" d="m1169.5538 670.8294l54.456665 0l0 27.02362l-54.456665 0z" fill-rule="evenodd"/><path fill="#ffffff" d="m1205.9109 689.6652l0 -1.984375l4.1875 -3.921875q0.453125 -0.40625 0.65625 -0.71875q0.21875 -0.328125 0.296875 -0.59375q0.078125 -0.265625 0.078125 -0.5q0 -0.53125 -0.375 -0.828125q-0.359375 -0.3125 -1.078125 -0.3125q-0.609375 0 -1.140625 0.28125q-0.515625 0.265625 -0.859375 0.796875l-2.34375 -1.3125q0.625 -1.046875 1.796875 -1.6875q1.1875 -0.640625 2.84375 -0.640625q1.296875 0 2.265625 0.421875q0.984375 0.40625 1.53125 1.171875q0.546875 0.765625 0.546875 1.8125q0 0.546875 -0.140625 1.078125q-0.140625 0.53125 -0.546875 1.140625q-0.40625 0.59375 -1.21875 1.328125l-3.328125 3.078125l-0.515625 -1.125l6.0625 0l0 2.515625l-8.71875 0z" fill-rule="nonzero"/><path fill="#000000" fill-opacity="0.0" d="m250.72441 382.44882l778.5512 0l0 88.09448l-778.5512 0z" fill-rule="evenodd"/><path fill="#0f0f0f" d="m278.52484 441.95605l13.65625 -29.859375l3.109375 0l13.65625 29.859375l-3.328125 0l-12.546875 -28.03125l1.28125 0l-12.53125 28.03125l-3.296875 0zm5.375 -7.984375l0.9375 -2.546875l17.375 0l0.9375 2.546875l-19.25 0zm38.433655 8.203125q-3.328125 0 -5.953125 -1.46875q-2.609375 -1.484375 -4.109375 -4.0625q-1.484375 -2.578125 -1.484375 -5.90625q0 -3.375 1.484375 -5.921875q1.5 -2.5625 4.109375 -4.015625q2.625 -1.453125 5.953125 -1.453125q2.859375 0 5.15625 1.109375q2.3125 1.109375 3.640625 3.328125l-2.265625 1.53125q-1.15625 -1.703125 -2.859375 -2.515625q-1.703125 -0.8125 -3.703125 -0.8125q-2.390625 0 -4.3125 1.09375q-1.921875 1.09375 -3.03125 3.0625q-1.109375 1.953125 -1.109375 4.59375q0 2.640625 1.109375 4.609375q1.109375 1.953125 3.03125 3.046875q1.921875 1.09375 4.3125 1.09375q2.0 0 3.703125 -0.8125q1.703125 -0.8125 2.859375 -2.484375l2.265625 1.546875q-1.328125 2.171875 -3.640625 3.3125q-2.296875 1.125 -5.15625 1.125zm22.052673 0q-3.15625 0 -4.859375 -1.703125q-1.703125 -1.71875 -1.703125 -4.828125l0 -21.03125l3.03125 0l0 20.859375q0 1.96875 1.0 3.03125q1.0 1.0625 2.875 1.0625q2.015625 0 3.328125 -1.15625l1.0625 2.1875q-0.890625 0.8125 -2.15625 1.203125q-1.25 0.375 -2.578125 0.375zm-10.578125 -20.09375l0 -2.515625l13.875 0l0 2.515625l-13.875 0zm20.81842 19.875l0 -22.390625l3.03125 0l0 22.390625l-3.03125 0zm1.546875 -27.34375q-0.9375 0 -1.578125 -0.640625q-0.640625 -0.640625 -0.640625 -1.53125q0 -0.890625 0.640625 -1.515625q0.640625 -0.625 1.578125 -0.625q0.9375 0 1.578125 0.609375q0.640625 0.59375 0.640625 1.484375q0 0.9375 -0.625 1.578125q-0.609375 0.640625 -1.59375 0.640625zm15.693268 27.34375l-9.9375 -22.390625l3.15625 0l9.125 20.765625l-1.5 0l9.265625 -20.765625l2.984375 0l-9.984375 22.390625l-3.109375 0zm17.354004 0l0 -22.390625l3.03125 0l0 22.390625l-3.03125 0zm1.546875 -27.34375q-0.9375 0 -1.578125 -0.640625q-0.640625 -0.640625 -0.640625 -1.53125q0 -0.890625 0.640625 -1.515625q0.640625 -0.625 1.578125 -0.625q0.9375 0 1.578125 0.609375q0.640625 0.59375 0.640625 1.484375q0 0.9375 -0.625 1.578125q-0.609375 0.640625 -1.59375 0.640625zm15.943268 27.5625q-2.765625 0 -5.25 -0.78125q-2.46875 -0.796875 -3.875 -2.0l1.359375 -2.390625q1.375 1.03125 3.5 1.78125q2.140625 0.734375 4.484375 0.734375q3.203125 0 4.609375 -1.0q1.40625 -1.0 1.40625 -2.65625q0 -1.25 -0.796875 -1.953125q-0.78125 -0.703125 -2.0625 -1.0625q-1.28125 -0.359375 -2.859375 -0.609375q-1.578125 -0.265625 -3.140625 -0.59375q-1.546875 -0.34375 -2.828125 -1.0q-1.28125 -0.671875 -2.078125 -1.828125q-0.78125 -1.15625 -0.78125 -3.0625q0 -1.84375 1.015625 -3.28125q1.03125 -1.453125 3.015625 -2.28125q1.984375 -0.84375 4.84375 -0.84375q2.171875 0 4.34375 0.578125q2.171875 0.578125 3.578125 1.515625l-1.3125 2.421875q-1.5 -1.015625 -3.203125 -1.453125q-1.703125 -0.453125 -3.40625 -0.453125q-3.03125 0 -4.46875 1.046875q-1.421875 1.03125 -1.421875 2.65625q0 1.28125 0.78125 2.015625q0.796875 0.71875 2.09375 1.125q1.296875 0.40625 2.859375 0.65625q1.5625 0.25 3.109375 0.625q1.5625 0.359375 2.859375 0.984375q1.3125 0.609375 2.09375 1.75q0.796875 1.125 0.796875 2.953125q0 1.96875 -1.09375 3.40625q-1.09375 1.421875 -3.15625 2.21875q-2.0625 0.78125 -5.015625 0.78125zm21.878723 0q-3.15625 0 -4.859375 -1.703125q-1.703125 -1.71875 -1.703125 -4.828125l0 -21.03125l3.03125 0l0 20.859375q0 1.96875 1.0 3.03125q1.0 1.0625 2.875 1.0625q2.015625 0 3.328125 -1.15625l1.0625 2.1875q-0.890625 0.8125 -2.15625 1.203125q-1.25 0.375 -2.578125 0.375zm-10.578125 -20.09375l0 -2.515625l13.875 0l0 2.515625l-13.875 0zm38.431824 19.875l0 -27.125l-10.484375 0l0 -2.734375l24.140625 0l0 2.734375l-10.484375 0l0 27.125l-3.171875 0zm17.44983 0l0 -22.390625l2.90625 0l0 6.09375l-0.296875 -1.0625q0.9375 -2.5625 3.15625 -3.90625q2.21875 -1.34375 5.5 -1.34375l0 2.9375q-0.171875 0 -0.34375 -0.015625q-0.171875 -0.015625 -0.34375 -0.015625q-3.53125 0 -5.546875 2.15625q-2.0 2.140625 -2.0 6.109375l0 11.4375l-3.03125 0zm29.131042 0l0 -4.953125l-0.125 -0.8125l0 -8.265625q0 -2.859375 -1.609375 -4.390625q-1.59375 -1.546875 -4.75 -1.546875q-2.171875 0 -4.140625 0.734375q-1.953125 0.71875 -3.3125 1.921875l-1.375 -2.265625q1.71875 -1.453125 4.09375 -2.234375q2.390625 -0.796875 5.046875 -0.796875q4.34375 0 6.703125 2.15625q2.375 2.15625 2.375 6.546875l0 13.90625l-2.90625 0zm-7.71875 0.21875q-2.515625 0 -4.375 -0.828125q-1.84375 -0.84375 -2.828125 -2.3125q-0.984375 -1.46875 -0.984375 -3.390625q0 -1.75 0.828125 -3.171875q0.84375 -1.4375 2.734375 -2.3125q1.90625 -0.875 5.09375 -0.875l7.71875 0l0 2.265625l-7.625 0q-3.25 0 -4.515625 1.15625q-1.25 1.140625 -1.25 2.859375q0 1.90625 1.484375 3.0625q1.5 1.15625 4.1875 1.15625q2.5625 0 4.421875 -1.171875q1.859375 -1.171875 2.703125 -3.390625l0.6875 2.078125q-0.859375 2.21875 -2.96875 3.546875q-2.109375 1.328125 -5.3125 1.328125zm27.77655 0q-3.203125 0 -5.75 -1.453125q-2.53125 -1.453125 -3.984375 -4.03125q-1.4375305 -2.578125 -1.4375305 -5.953125q0 -3.40625 1.4375305 -5.96875q1.453125 -2.5625 3.984375 -3.984375q2.546875 -1.4375 5.75 -1.4375q2.9375 0 5.265625 1.328125q2.328125 1.3125 3.703125 3.859375q1.390625 2.53125 1.390625 6.203125q0 3.625 -1.359375 6.1875q-1.359375 2.5625 -3.6875 3.90625q-2.328125 1.34375 -5.3125 1.34375zm0.203125 -2.6875q2.390625 0 4.28125 -1.09375q1.90625 -1.09375 3.0 -3.0625q1.09375 -1.984375 1.09375 -4.59375q0 -2.640625 -1.09375 -4.59375q-1.09375 -1.96875 -3.0 -3.0625q-1.890625 -1.09375 -4.28125 -1.09375q-2.34375 0 -4.21875 1.09375q-1.875 1.09375 -2.984375 3.0625q-1.109375 1.953125 -1.109375 4.59375q0 2.609375 1.109375 4.59375q1.109375 1.96875 2.984375 3.0625q1.875 1.09375 4.21875 1.09375zm8.453125 2.46875l0 -6.734375l0.296875 -4.53125l-0.421875 -4.515625l0 -15.875l3.03125 0l0 31.65625l-2.90625 0zm11.342773 0l0 -22.390625l3.03125 0l0 22.390625l-3.03125 0zm1.546875 -27.34375q-0.9375 0 -1.578125 -0.640625q-0.640625 -0.640625 -0.640625 -1.53125q0 -0.890625 0.640625 -1.515625q0.640625 -0.625 1.578125 -0.625q0.9375 0 1.578125 0.609375q0.640625 0.59375 0.640625 1.484375q0 0.9375 -0.625 1.578125q-0.609375 0.640625 -1.59375 0.640625zm21.365112 4.734375q2.734375 0 4.796875 1.046875q2.0625 1.046875 3.234375 3.1875q1.1875 2.125 1.1875 5.359375l0 13.015625l-3.03125 0l0 -12.71875q0 -3.53125 -1.78125 -5.34375q-1.765625 -1.8125 -4.96875 -1.8125q-2.375 0 -4.15625 0.96875q-1.765625 0.953125 -2.734375 2.765625q-0.953125 1.8125 -0.953125 4.375l0 11.765625l-3.03125 0l0 -22.390625l2.90625 0l0 6.140625l-0.46875 -1.15625q1.0625 -2.421875 3.40625 -3.8125q2.34375 -1.390625 5.59375 -1.390625zm26.960571 31.09375q-3.078125 0 -5.890625 -0.890625q-2.8125 -0.890625 -4.5625 -2.5625l1.53125 -2.296875q1.578125 1.40625 3.90625 2.234375q2.328125 0.828125 4.921875 0.828125q4.265625 0 6.265625 -1.984375q2.015625 -1.984375 2.015625 -6.15625l0 -5.59375l0.421875 -3.828125l-0.296875 -3.84375l0 -6.78125l2.90625 0l0 19.65625q0 5.8125 -2.84375 8.515625q-2.828125 2.703125 -8.375 2.703125zm-0.5625 -9.34375q-3.1875 0 -5.75 -1.375q-2.5625 -1.390625 -4.03125 -3.859375q-1.46875 -2.484375 -1.46875 -5.671875q0 -3.203125 1.46875 -5.65625q1.46875 -2.453125 4.03125 -3.8125q2.5625 -1.375 5.75 -1.375q2.984375 0 5.375 1.234375q2.390625 1.234375 3.796875 3.671875q1.40625 2.4375 1.40625 5.9375q0 3.484375 -1.40625 5.921875q-1.40625 2.4375 -3.796875 3.71875q-2.390625 1.265625 -5.375 1.265625zm0.296875 -2.6875q2.484375 0 4.390625 -1.03125q1.921875 -1.046875 3.03125 -2.90625q1.109375 -1.859375 1.109375 -4.28125q0 -2.4375 -1.109375 -4.265625q-1.109375 -1.84375 -3.03125 -2.890625q-1.90625 -1.046875 -4.390625 -1.046875q-2.421875 0 -4.375 1.046875q-1.9375 1.046875 -3.03125 2.890625q-1.078125 1.828125 -1.078125 4.265625q0 2.421875 1.078125 4.28125q1.09375 1.859375 3.03125 2.90625q1.953125 1.03125 4.375 1.03125zm25.81726 7.8125l14.078125 -40.1875l2.765625 0l-14.078125 40.1875l-2.765625 0zm31.387634 -4.265625l0 -29.859375l3.15625 0l0 29.859375l-3.15625 0zm23.679077 -22.609375q2.734375 0 4.796875 1.046875q2.0625 1.046875 3.234375 3.1875q1.1875 2.125 1.1875 5.359375l0 13.015625l-3.03125 0l0 -12.71875q0 -3.53125 -1.78125 -5.34375q-1.765625 -1.8125 -4.96875 -1.8125q-2.375 0 -4.15625 0.96875q-1.765625 0.953125 -2.734375 2.765625q-0.953125 1.8125 -0.953125 4.375l0 11.765625l-3.03125 0l0 -22.390625l2.90625 0l0 6.140625l-0.46875 -1.15625q1.0625 -2.421875 3.40625 -3.8125q2.34375 -1.390625 5.59375 -1.390625zm22.737 22.609375l-9.9375 -22.390625l3.15625 0l9.125 20.765625l-1.5 0l9.265625 -20.765625l2.984375 0l-9.984375 22.390625l-3.109375 0zm26.229675 0.21875q-3.5 0 -6.140625 -1.46875q-2.640625 -1.484375 -4.140625 -4.0625q-1.484375 -2.578125 -1.484375 -5.90625q0 -3.328125 1.421875 -5.890625q1.421875 -2.5625 3.921875 -4.03125q2.5 -1.46875 5.609375 -1.46875q3.15625 0 5.609375 1.4375q2.453125 1.421875 3.859375 4.0q1.40625 2.578125 1.40625 5.953125q0 0.21875 -0.015625 0.453125q-0.015625 0.234375 -0.015625 0.484375l-19.5 0l0 -2.265625l17.875 0l-1.203125 0.90625q0 -2.4375 -1.046875 -4.328125q-1.03125 -1.90625 -2.828125 -2.96875q-1.796875 -1.0625 -4.140625 -1.0625q-2.296875 0 -4.140625 1.0625q-1.828125 1.0625 -2.859375 2.984375q-1.015625 1.921875 -1.015625 4.390625l0 0.46875q0 2.5625 1.125 4.5q1.140625 1.9375 3.15625 3.03125q2.03125 1.09375 4.640625 1.09375q2.046875 0 3.8125 -0.71875q1.765625 -0.734375 3.046875 -2.234375l1.703125 1.96875q-1.484375 1.796875 -3.734375 2.734375q-2.234375 0.9375 -4.921875 0.9375zm22.264282 0q-2.765625 0 -5.25 -0.78125q-2.46875 -0.796875 -3.875 -2.0l1.359375 -2.390625q1.375 1.03125 3.5 1.78125q2.140625 0.734375 4.484375 0.734375q3.203125 0 4.609375 -1.0q1.40625 -1.0 1.40625 -2.65625q0 -1.25 -0.796875 -1.953125q-0.78125 -0.703125 -2.0625 -1.0625q-1.28125 -0.359375 -2.859375 -0.609375q-1.578125 -0.265625 -3.140625 -0.59375q-1.546875 -0.34375 -2.828125 -1.0q-1.28125 -0.671875 -2.078125 -1.828125q-0.78125 -1.15625 -0.78125 -3.0625q0 -1.84375 1.015625 -3.28125q1.03125 -1.453125 3.015625 -2.28125q1.984375 -0.84375 4.84375 -0.84375q2.171875 0 4.34375 0.578125q2.171875 0.578125 3.578125 1.515625l-1.3125 2.421875q-1.5 -1.015625 -3.203125 -1.453125q-1.703125 -0.453125 -3.40625 -0.453125q-3.03125 0 -4.46875 1.046875q-1.421875 1.03125 -1.421875 2.65625q0 1.28125 0.78125 2.015625q0.796875 0.71875 2.09375 1.125q1.296875 0.40625 2.859375 0.65625q1.5625 0.25 3.109375 0.625q1.5625 0.359375 2.859375 0.984375q1.3125 0.609375 2.09375 1.75q0.796875 1.125 0.796875 2.953125q0 1.96875 -1.09375 3.40625q-1.09375 1.421875 -3.15625 2.21875q-2.0625 0.78125 -5.015625 0.78125zm21.878723 0q-3.15625 0 -4.859375 -1.703125q-1.703125 -1.71875 -1.703125 -4.828125l0 -21.03125l3.03125 0l0 20.859375q0 1.96875 1.0 3.03125q1.0 1.0625 2.875 1.0625q2.015625 0 3.328125 -1.15625l1.0625 2.1875q-0.890625 0.8125 -2.15625 1.203125q-1.25 0.375 -2.578125 0.375zm-10.578125 -20.09375l0 -2.515625l13.875 0l0 2.515625l-13.875 0zm48.802856 -2.734375q2.734375 0 4.75 1.046875q2.03125 1.046875 3.15625 3.1875q1.140625 2.125 1.140625 5.359375l0 13.015625l-3.03125 0l0 -12.71875q0 -3.53125 -1.6875 -5.34375q-1.6875 -1.8125 -4.75 -1.8125q-2.3125 0 -4.0 0.96875q-1.671875 0.953125 -2.59375 2.765625q-0.921875 1.8125 -0.921875 4.375l0 11.765625l-3.015625 0l0 -12.71875q0 -3.53125 -1.71875 -5.34375q-1.703125 -1.8125 -4.765625 -1.8125q-2.265625 0 -3.984375 0.96875q-1.703125 0.953125 -2.625 2.765625q-0.90625 1.8125 -0.90625 4.375l0 11.765625l-3.03125 0l0 -22.390625l2.90625 0l0 6.046875l-0.46875 -1.0625q1.015625 -2.421875 3.296875 -3.8125q2.296875 -1.390625 5.40625 -1.390625q3.28125 0 5.578125 1.640625q2.3125 1.640625 3.0 4.9375l-1.203125 -0.484375q0.984375 -2.71875 3.46875 -4.40625q2.5 -1.6875 6.0 -1.6875zm26.789429 22.828125q-3.5 0 -6.140625 -1.46875q-2.640625 -1.484375 -4.140625 -4.0625q-1.484375 -2.578125 -1.484375 -5.90625q0 -3.328125 1.421875 -5.890625q1.421875 -2.5625 3.921875 -4.03125q2.5 -1.46875 5.609375 -1.46875q3.15625 0 5.609375 1.4375q2.453125 1.421875 3.859375 4.0q1.40625 2.578125 1.40625 5.953125q0 0.21875 -0.015625 0.453125q-0.015625 0.234375 -0.015625 0.484375l-19.5 0l0 -2.265625l17.875 0l-1.203125 0.90625q0 -2.4375 -1.046875 -4.328125q-1.03125 -1.90625 -2.828125 -2.96875q-1.796875 -1.0625 -4.140625 -1.0625q-2.296875 0 -4.140625 1.0625q-1.828125 1.0625 -2.859375 2.984375q-1.015625 1.921875 -1.015625 4.390625l0 0.46875q0 2.5625 1.125 4.5q1.140625 1.9375 3.15625 3.03125q2.03125 1.09375 4.640625 1.09375q2.046875 0 3.8125 -0.71875q1.765625 -0.734375 3.046875 -2.234375l1.703125 1.96875q-1.484375 1.796875 -3.734375 2.734375q-2.234375 0.9375 -4.921875 0.9375zm27.68628 -22.828125q2.734375 0 4.796875 1.046875q2.0625 1.046875 3.234375 3.1875q1.1875 2.125 1.1875 5.359375l0 13.015625l-3.03125 0l0 -12.71875q0 -3.53125 -1.78125 -5.34375q-1.765625 -1.8125 -4.96875 -1.8125q-2.375 0 -4.15625 0.96875q-1.765625 0.953125 -2.734375 2.765625q-0.953125 1.8125 -0.953125 4.375l0 11.765625l-3.03125 0l0 -22.390625l2.90625 0l0 6.140625l-0.46875 -1.15625q1.0625 -2.421875 3.40625 -3.8125q2.34375 -1.390625 5.59375 -1.390625zm24.476196 22.828125q-3.15625 0 -4.859375 -1.703125q-1.703125 -1.71875 -1.703125 -4.828125l0 -21.03125l3.03125 0l0 20.859375q0 1.96875 1.0 3.03125q1.0 1.0625 2.875 1.0625q2.015625 0 3.328125 -1.15625l1.0625 2.1875q-0.890625 0.8125 -2.15625 1.203125q-1.25 0.375 -2.578125 0.375zm-10.578125 -20.09375l0 -2.515625l13.875 0l0 2.515625l-13.875 0zm35.447388 4.46875l15.78125 0l0 2.734375l-15.78125 0l0 -2.734375zm0.34375 15.40625l-3.15625 0l0 -29.859375l20.484375 0l0 2.734375l-17.328125 0l0 27.125zm23.204468 0l0 -22.390625l3.03125 0l0 22.390625l-3.03125 0zm1.546875 -27.34375q-0.9375 0 -1.578125 -0.640625q-0.640625 -0.640625 -0.640625 -1.53125q0 -0.890625 0.640625 -1.515625q0.640625 -0.625 1.578125 -0.625q0.9375 0 1.578125 0.609375q0.640625 0.59375 0.640625 1.484375q0 0.9375 -0.625 1.578125q-0.609375 0.640625 -1.59375 0.640625zm9.927612 27.34375l0 -22.390625l2.90625 0l0 6.09375l-0.296875 -1.0625q0.9375 -2.5625 3.15625 -3.90625q2.21875 -1.34375 5.5 -1.34375l0 2.9375q-0.171875 0 -0.34375 -0.015625q-0.171875 -0.015625 -0.34375 -0.015625q-3.53125 0 -5.546875 2.15625q-2.0 2.140625 -2.0 6.109375l0 11.4375l-3.03125 0zm44.74817 -22.609375q2.734375 0 4.75 1.046875q2.03125 1.046875 3.15625 3.1875q1.140625 2.125 1.140625 5.359375l0 13.015625l-3.03125 0l0 -12.71875q0 -3.53125 -1.6875 -5.34375q-1.6875 -1.8125 -4.75 -1.8125q-2.3125 0 -4.0 0.96875q-1.671875 0.953125 -2.59375 2.765625q-0.921875 1.8125 -0.921875 4.375l0 11.765625l-3.015625 0l0 -12.71875q0 -3.53125 -1.71875 -5.34375q-1.703125 -1.8125 -4.765625 -1.8125q-2.265625 0 -3.984375 0.96875q-1.703125 0.953125 -2.625 2.765625q-0.90625 1.8125 -0.90625 4.375l0 11.765625l-3.03125 0l0 -22.390625l2.90625 0l0 6.046875l-0.46875 -1.0625q1.015625 -2.421875 3.296875 -3.8125q2.296875 -1.390625 5.40625 -1.390625q3.28125 0 5.578125 1.640625q2.3125 1.640625 3.0 4.9375l-1.203125 -0.484375q0.984375 -2.71875 3.46875 -4.40625q2.5 -1.6875 6.0 -1.6875z" fill-rule="nonzero"/></g></svg>